<svg width="17" height="27" viewBox="0 0 17 27" fill="none" xmlns="http://www.w3.org/2000/svg">
<path d="M12.4426 0.39502C10.504 0.39502 8.64473 1.0883 7.2739 2.32234C5.90308 3.55638 5.13296 5.2301 5.13296 6.97531V10.6389H1.22133C1.02493 10.6389 0.865723 10.7822 0.865723 10.959V15.7964C0.865723 15.9732 1.02493 16.1166 1.22133 16.1166H5.13296V26.0403C5.13296 26.2171 5.29217 26.3605 5.48857 26.3605H10.8621C11.0585 26.3605 11.2177 26.2171 11.2177 26.0403V16.1166H15.164C15.3272 16.1166 15.4694 16.0166 15.509 15.8741L16.8524 11.0367C16.9085 10.8346 16.7388 10.6389 16.5074 10.6389H11.2177V6.97531C11.2177 6.68287 11.3468 6.4024 11.5765 6.19562C11.8062 5.98883 12.1177 5.87266 12.4426 5.87266H16.5518C16.7482 5.87266 16.9074 5.72934 16.9074 5.55254V0.715142C16.9074 0.538343 16.7482 0.39502 16.5518 0.39502H12.4426Z" fill="#002B3E"/>
</svg>
