<svg width="30" height="29" viewBox="0 0 30 29" fill="none" xmlns="http://www.w3.org/2000/svg">
<path d="M3.54158 0.972168C1.68675 0.972168 0.183105 2.32578 0.183105 3.99554C0.183105 5.66531 1.68675 7.01892 3.54158 7.01892C5.39642 7.01892 6.90006 5.66531 6.90006 3.99554C6.90006 2.32578 5.39642 0.972168 3.54158 0.972168Z" fill="#002B3E"/>
<path d="M0.380663 9.50875C0.271555 9.50875 0.183105 9.58838 0.183105 9.6866V28.1825C0.183105 28.2808 0.271555 28.3604 0.380663 28.3604H6.7025C6.81161 28.3604 6.90006 28.2808 6.90006 28.1825V9.6866C6.90006 9.58838 6.81161 9.50875 6.7025 9.50875H0.380663Z" fill="#002B3E"/>
<path d="M10.6537 9.50875C10.5445 9.50875 10.4561 9.58838 10.4561 9.6866V28.1825C10.4561 28.2808 10.5445 28.3604 10.6537 28.3604H16.9755C17.0846 28.3604 17.173 28.2808 17.173 28.1825V18.2232C17.173 17.5157 17.4853 16.8371 18.041 16.3369C18.5967 15.8366 19.3505 15.5555 20.1364 15.5555C20.9223 15.5555 21.6761 15.8366 22.2318 16.3369C22.7876 16.8371 23.0998 17.5157 23.0998 18.2232V28.1825C23.0998 28.2808 23.1882 28.3604 23.2973 28.3604H29.6192C29.7283 28.3604 29.8167 28.2808 29.8167 28.1825V15.9187C29.8167 12.466 26.481 9.76484 22.6649 10.0771C21.488 10.1735 20.3244 10.4368 19.2379 10.856L17.173 11.6527V9.6866C17.173 9.58838 17.0846 9.50875 16.9755 9.50875H10.6537Z" fill="#002B3E"/>
</svg>
