<svg width="276" height="192" viewBox="0 0 276 192" fill="none" xmlns="http://www.w3.org/2000/svg">
<path d="M125.101 24.687L81.6856 17.8768V53.6305H125.101V24.687Z" fill="#55ACD1"/>
<path d="M74.0241 101.302V61.2919H125.101V94.4917L74.0241 101.302Z" fill="#80C1DD"/>
<path d="M203.418 0L134.465 10.2153V51.9279H203.418V0Z" fill="#0082BA"/>
<path d="M193.203 61.2919H134.465V99.5993L193.203 106.41V61.2919Z" fill="#00415D"/>
<path d="M34.7682 153.732L28.0019 177.952H22.2766L17.7311 160.706L12.9773 177.952L7.28675 177.986L0.763374 153.732H5.96819L10.2361 172.539L15.1634 153.732H20.5764L25.226 172.435L29.5287 153.732H34.7682ZM40.4038 156.439C39.5479 156.439 38.8308 156.173 38.2524 155.64C37.6973 155.085 37.4197 154.403 37.4197 153.593C37.4197 152.784 37.6973 152.113 38.2524 151.581C38.8308 151.026 39.5479 150.748 40.4038 150.748C41.2597 150.748 41.9652 151.026 42.5204 151.581C43.0987 152.113 43.3879 152.784 43.3879 153.593C43.3879 154.403 43.0987 155.085 42.5204 155.64C41.9652 156.173 41.2597 156.439 40.4038 156.439ZM42.798 158.729V177.952H37.9401V158.729H42.798ZM52.4554 152.275V177.952H47.5975V152.275H52.4554ZM62.1127 152.275V177.952H57.2549V152.275H62.1127ZM69.3759 156.439C68.52 156.439 67.8029 156.173 67.2246 155.64C66.6694 155.085 66.3918 154.403 66.3918 153.593C66.3918 152.784 66.6694 152.113 67.2246 151.581C67.8029 151.026 68.52 150.748 69.3759 150.748C70.2318 150.748 70.9373 151.026 71.4925 151.581C72.0708 152.113 72.36 152.784 72.36 153.593C72.36 154.403 72.0708 155.085 71.4925 155.64C70.9373 156.173 70.2318 156.439 69.3759 156.439ZM71.7701 158.729V177.952H66.9123V158.729H71.7701ZM75.3205 168.271C75.3205 166.328 75.7022 164.604 76.4656 163.101C77.2521 161.597 78.3046 160.44 79.6232 159.631C80.9648 158.821 82.4569 158.416 84.0993 158.416C85.5335 158.416 86.7827 158.706 87.8468 159.284C88.934 159.862 89.8015 160.591 90.4492 161.47V158.729H95.3417V177.952H90.4492V175.141C89.8246 176.043 88.9571 176.795 87.8468 177.397C86.7595 177.975 85.4988 178.264 84.0646 178.264C82.4453 178.264 80.9648 177.848 79.6232 177.015C78.3046 176.182 77.2521 175.014 76.4656 173.51C75.7022 171.984 75.3205 170.237 75.3205 168.271ZM90.4492 168.34C90.4492 167.16 90.2179 166.154 89.7552 165.321C89.2926 164.466 88.668 163.818 87.8815 163.378C87.095 162.916 86.2506 162.684 85.3485 162.684C84.4463 162.684 83.6135 162.904 82.8501 163.344C82.0868 163.783 81.4622 164.431 80.9764 165.287C80.5138 166.119 80.2824 167.114 80.2824 168.271C80.2824 169.427 80.5138 170.445 80.9764 171.324C81.4622 172.18 82.0868 172.839 82.8501 173.302C83.6367 173.765 84.4694 173.996 85.3485 173.996C86.2506 173.996 87.095 173.776 87.8815 173.337C88.668 172.874 89.2926 172.226 89.7552 171.394C90.2179 170.538 90.4492 169.52 90.4492 168.34ZM123.959 158.451C126.319 158.451 128.215 159.18 129.65 160.637C131.107 162.071 131.836 164.084 131.836 166.675V177.952H126.978V167.334C126.978 165.83 126.596 164.685 125.833 163.899C125.069 163.089 124.028 162.684 122.71 162.684C121.391 162.684 120.339 163.089 119.552 163.899C118.789 164.685 118.407 165.83 118.407 167.334V177.952H113.549V167.334C113.549 165.83 113.168 164.685 112.404 163.899C111.641 163.089 110.6 162.684 109.281 162.684C107.94 162.684 106.876 163.089 106.089 163.899C105.326 164.685 104.944 165.83 104.944 167.334V177.952H100.086V158.729H104.944V161.053C105.569 160.244 106.367 159.608 107.338 159.145C108.333 158.682 109.42 158.451 110.6 158.451C112.104 158.451 113.445 158.775 114.625 159.423C115.805 160.047 116.719 160.949 117.366 162.129C117.991 161.019 118.893 160.128 120.073 159.457C121.276 158.786 122.571 158.451 123.959 158.451ZM143.802 178.264C142.229 178.264 140.817 177.986 139.568 177.431C138.319 176.853 137.324 176.078 136.584 175.106C135.867 174.135 135.474 173.059 135.404 171.879H140.297C140.39 172.62 140.748 173.233 141.373 173.719C142.02 174.204 142.818 174.447 143.767 174.447C144.692 174.447 145.409 174.262 145.918 173.892C146.45 173.522 146.716 173.048 146.716 172.469C146.716 171.845 146.392 171.382 145.745 171.081C145.12 170.758 144.114 170.411 142.726 170.04C141.292 169.693 140.112 169.335 139.187 168.965C138.284 168.595 137.498 168.028 136.827 167.265C136.179 166.501 135.856 165.472 135.856 164.176C135.856 163.112 136.156 162.141 136.758 161.262C137.382 160.383 138.261 159.689 139.395 159.18C140.551 158.671 141.905 158.416 143.455 158.416C145.745 158.416 147.572 158.995 148.937 160.151C150.302 161.285 151.054 162.823 151.192 164.766H146.543C146.473 164.003 146.15 163.401 145.571 162.962C145.016 162.499 144.264 162.268 143.316 162.268C142.437 162.268 141.754 162.43 141.269 162.754C140.806 163.078 140.575 163.529 140.575 164.107C140.575 164.755 140.898 165.252 141.546 165.599C142.194 165.923 143.2 166.258 144.565 166.605C145.953 166.952 147.098 167.311 148 167.681C148.902 168.051 149.677 168.629 150.325 169.416C150.996 170.179 151.343 171.197 151.366 172.469C151.366 173.58 151.054 174.574 150.429 175.453C149.828 176.333 148.949 177.026 147.792 177.535C146.658 178.021 145.328 178.264 143.802 178.264Z" fill="#006C9B"/>
<path d="M175.618 153.767L166.492 177.952H162.848L153.723 153.767H157.088L164.688 174.621L172.287 153.767H175.618ZM180.711 155.849C180.109 155.849 179.6 155.64 179.184 155.224C178.768 154.808 178.559 154.299 178.559 153.697C178.559 153.096 178.768 152.587 179.184 152.171C179.6 151.754 180.109 151.546 180.711 151.546C181.289 151.546 181.775 151.754 182.168 152.171C182.585 152.587 182.793 153.096 182.793 153.697C182.793 154.299 182.585 154.808 182.168 155.224C181.775 155.64 181.289 155.849 180.711 155.849ZM182.238 158.937V177.952H179.08V158.937H182.238ZM194.351 178.264C192.893 178.264 191.586 178.021 190.43 177.535C189.273 177.026 188.359 176.333 187.689 175.453C187.018 174.551 186.648 173.522 186.578 172.365H189.84C189.932 173.314 190.372 174.089 191.158 174.69C191.968 175.292 193.021 175.592 194.316 175.592C195.519 175.592 196.467 175.326 197.161 174.794C197.855 174.262 198.202 173.591 198.202 172.782C198.202 171.949 197.832 171.336 197.092 170.943C196.352 170.526 195.207 170.121 193.657 169.728C192.246 169.358 191.089 168.988 190.187 168.618C189.308 168.225 188.544 167.658 187.897 166.918C187.272 166.154 186.96 165.159 186.96 163.933C186.96 162.962 187.249 162.071 187.827 161.262C188.406 160.452 189.227 159.816 190.291 159.353C191.355 158.867 192.569 158.625 193.934 158.625C196.039 158.625 197.74 159.157 199.035 160.221C200.33 161.285 201.024 162.742 201.117 164.593H197.959C197.89 163.598 197.485 162.8 196.745 162.199C196.028 161.597 195.056 161.296 193.83 161.296C192.697 161.296 191.795 161.539 191.124 162.025C190.453 162.511 190.117 163.147 190.117 163.933C190.117 164.558 190.314 165.079 190.707 165.495C191.124 165.888 191.633 166.212 192.234 166.466C192.859 166.698 193.715 166.964 194.802 167.265C196.167 167.635 197.277 168.005 198.133 168.375C198.989 168.722 199.717 169.254 200.319 169.971C200.943 170.688 201.267 171.625 201.29 172.782C201.29 173.823 201.001 174.759 200.423 175.592C199.845 176.425 199.023 177.084 197.959 177.57C196.918 178.033 195.715 178.264 194.351 178.264ZM222.611 158.937V177.952H219.454V175.141C218.852 176.113 218.008 176.876 216.921 177.431C215.857 177.963 214.677 178.229 213.382 178.229C211.901 178.229 210.571 177.929 209.391 177.327C208.211 176.703 207.275 175.777 206.581 174.551C205.91 173.325 205.574 171.833 205.574 170.075V158.937H208.697V169.659C208.697 171.533 209.171 172.978 210.12 173.996C211.068 174.991 212.364 175.488 214.006 175.488C215.695 175.488 217.025 174.968 217.997 173.927C218.968 172.886 219.454 171.371 219.454 169.381V158.937H222.611ZM226.763 168.375C226.763 166.432 227.156 164.732 227.943 163.274C228.729 161.794 229.805 160.649 231.17 159.839C232.558 159.029 234.096 158.625 235.785 158.625C237.45 158.625 238.896 158.983 240.122 159.7C241.348 160.417 242.262 161.319 242.863 162.407V158.937H246.056V177.952H242.863V174.413C242.239 175.523 241.302 176.448 240.053 177.188C238.827 177.906 237.393 178.264 235.75 178.264C234.061 178.264 232.535 177.848 231.17 177.015C229.805 176.182 228.729 175.014 227.943 173.51C227.156 172.007 226.763 170.295 226.763 168.375ZM242.863 168.41C242.863 166.975 242.574 165.726 241.996 164.662C241.418 163.598 240.631 162.788 239.636 162.233C238.665 161.655 237.589 161.366 236.409 161.366C235.23 161.366 234.154 161.643 233.182 162.199C232.211 162.754 231.436 163.563 230.858 164.627C230.279 165.692 229.99 166.941 229.99 168.375C229.99 169.832 230.279 171.105 230.858 172.192C231.436 173.256 232.211 174.077 233.182 174.655C234.154 175.211 235.23 175.488 236.409 175.488C237.589 175.488 238.665 175.211 239.636 174.655C240.631 174.077 241.418 173.256 241.996 172.192C242.574 171.105 242.863 169.844 242.863 168.41ZM254.549 152.275V177.952H251.392V152.275H254.549ZM266.662 178.264C265.205 178.264 263.898 178.021 262.741 177.535C261.585 177.026 260.671 176.333 260 175.453C259.329 174.551 258.959 173.522 258.89 172.365H262.152C262.244 173.314 262.684 174.089 263.47 174.69C264.28 175.292 265.332 175.592 266.628 175.592C267.831 175.592 268.779 175.326 269.473 174.794C270.167 174.262 270.514 173.591 270.514 172.782C270.514 171.949 270.144 171.336 269.404 170.943C268.663 170.526 267.518 170.121 265.968 169.728C264.557 169.358 263.401 168.988 262.499 168.618C261.62 168.225 260.856 167.658 260.208 166.918C259.584 166.154 259.272 165.159 259.272 163.933C259.272 162.962 259.561 162.071 260.139 161.262C260.717 160.452 261.539 159.816 262.603 159.353C263.667 158.867 264.881 158.625 266.246 158.625C268.351 158.625 270.051 159.157 271.347 160.221C272.642 161.285 273.336 162.742 273.429 164.593H270.271C270.202 163.598 269.797 162.8 269.057 162.199C268.34 161.597 267.368 161.296 266.142 161.296C265.008 161.296 264.106 161.539 263.435 162.025C262.765 162.511 262.429 163.147 262.429 163.933C262.429 164.558 262.626 165.079 263.019 165.495C263.435 165.888 263.944 166.212 264.546 166.466C265.17 166.698 266.026 166.964 267.113 167.265C268.478 167.635 269.589 168.005 270.445 168.375C271.3 168.722 272.029 169.254 272.631 169.971C273.255 170.688 273.579 171.625 273.602 172.782C273.602 173.823 273.313 174.759 272.735 175.592C272.156 176.425 271.335 177.084 270.271 177.57C269.23 178.033 268.027 178.264 266.662 178.264Z" fill="black"/>
</svg>

