<svg width="32" height="24" viewBox="0 0 32 24" fill="none" xmlns="http://www.w3.org/2000/svg">
<path d="M31.5384 3.31044C31.63 3.19552 31.4947 3.04714 31.3482 3.09826C30.3071 3.46153 29.2191 3.70663 28.1092 3.82742C29.345 3.16281 30.2986 2.15111 30.8274 0.953336C30.8813 0.83132 30.7332 0.722356 30.6056 0.785831C29.457 1.35684 28.2183 1.76801 26.9316 2.00482C26.8777 2.01473 26.8222 1.99822 26.7844 1.9623C25.8188 1.04508 24.5477 0.434379 23.1621 0.223342C21.7473 0.00787139 20.2931 0.221218 19.0276 0.82992C17.762 1.43862 16.7567 2.40825 16.1692 3.58674C15.6107 4.70725 15.4599 5.95631 15.7354 7.15588C15.7568 7.24895 15.6759 7.33683 15.5705 7.33093C13.067 7.19096 10.6209 6.5915 8.38294 5.56868C6.15068 4.54846 4.17395 3.12916 2.57315 1.39832C2.5021 1.32151 2.36745 1.33145 2.31569 1.41988C1.81757 2.27079 1.55677 3.21919 1.55748 4.18311C1.55546 5.14259 1.81702 6.08764 2.31888 6.93411C2.82073 7.78058 3.54731 8.50221 4.43392 9.03473C3.49366 9.0117 2.57174 8.80245 1.73331 8.42305C1.62525 8.37415 1.49564 8.44377 1.50126 8.55252C1.56665 9.81769 2.08259 11.0878 2.97565 12.0623C3.92601 13.0993 5.2451 13.809 6.70978 14.0713C6.14596 14.2258 5.56059 14.3072 4.97127 14.3132C4.65053 14.3098 4.33042 14.2885 4.01278 14.2494C3.89501 14.2349 3.79884 14.3356 3.84007 14.436C4.27694 15.4995 5.04871 16.4275 6.06349 17.1049C7.1484 17.8291 8.4571 18.2308 9.80748 18.2542C7.5272 19.8695 4.7119 20.751 1.81036 20.7583C1.51221 20.7592 1.2142 20.7505 0.916892 20.7323C0.749351 20.722 0.672295 20.9229 0.816711 21.0001C3.64379 22.5104 6.87508 23.3087 10.171 23.3051C12.6044 23.3278 15.0185 22.9138 17.2722 22.0873C19.5259 21.2607 21.574 20.0382 23.297 18.4911C25.02 16.944 26.3833 15.1034 27.3072 13.0767C28.2311 11.05 28.6972 8.87784 28.6782 6.68717V6.00449C28.6782 5.95957 28.7018 5.91733 28.7416 5.89026C29.8136 5.1616 30.7563 4.29167 31.5384 3.31044Z" fill="#002B3E"/>
</svg>
