<svg width="221" height="23" viewBox="0 0 221 23" fill="none" xmlns="http://www.w3.org/2000/svg">
<path d="M28.056 2.456L22.596 22H17.976L14.308 8.084L10.472 22L5.88 22.028L0.616 2.456H4.816L8.26 17.632L12.236 2.456H16.604L20.356 17.548L23.828 2.456H28.056ZM32.6036 4.64C31.9129 4.64 31.3343 4.42533 30.8676 3.996C30.4196 3.548 30.1956 2.99733 30.1956 2.344C30.1956 1.69067 30.4196 1.14933 30.8676 0.719999C31.3343 0.271999 31.9129 0.0479989 32.6036 0.0479989C33.2943 0.0479989 33.8636 0.271999 34.3116 0.719999C34.7783 1.14933 35.0116 1.69067 35.0116 2.344C35.0116 2.99733 34.7783 3.548 34.3116 3.996C33.8636 4.42533 33.2943 4.64 32.6036 4.64ZM34.5356 6.488V22H30.6156V6.488H34.5356ZM42.3286 1.28V22H38.4086V1.28H42.3286ZM50.1215 1.28V22H46.2015V1.28H50.1215ZM55.9825 4.64C55.2918 4.64 54.7132 4.42533 54.2465 3.996C53.7985 3.548 53.5745 2.99733 53.5745 2.344C53.5745 1.69067 53.7985 1.14933 54.2465 0.719999C54.7132 0.271999 55.2918 0.0479989 55.9825 0.0479989C56.6732 0.0479989 57.2425 0.271999 57.6905 0.719999C58.1572 1.14933 58.3905 1.69067 58.3905 2.344C58.3905 2.99733 58.1572 3.548 57.6905 3.996C57.2425 4.42533 56.6732 4.64 55.9825 4.64ZM57.9145 6.488V22H53.9945V6.488H57.9145ZM60.7795 14.188C60.7795 12.62 61.0875 11.2293 61.7035 10.016C62.3381 8.80267 63.1875 7.86933 64.2515 7.216C65.3341 6.56267 66.5381 6.236 67.8635 6.236C69.0208 6.236 70.0288 6.46933 70.8875 6.936C71.7648 7.40267 72.4648 7.99067 72.9875 8.7V6.488H76.9355V22H72.9875V19.732C72.4835 20.46 71.7835 21.0667 70.8875 21.552C70.0101 22.0187 68.9928 22.252 67.8355 22.252C66.5288 22.252 65.3341 21.916 64.2515 21.244C63.1875 20.572 62.3381 19.6293 61.7035 18.416C61.0875 17.184 60.7795 15.7747 60.7795 14.188ZM72.9875 14.244C72.9875 13.292 72.8008 12.48 72.4275 11.808C72.0541 11.1173 71.5501 10.5947 70.9155 10.24C70.2808 9.86667 69.5995 9.68 68.8715 9.68C68.1435 9.68 67.4715 9.85733 66.8555 10.212C66.2395 10.5667 65.7355 11.0893 65.3435 11.78C64.9701 12.452 64.7835 13.2547 64.7835 14.188C64.7835 15.1213 64.9701 15.9427 65.3435 16.652C65.7355 17.3427 66.2395 17.8747 66.8555 18.248C67.4901 18.6213 68.1621 18.808 68.8715 18.808C69.5995 18.808 70.2808 18.6307 70.9155 18.276C71.5501 17.9027 72.0541 17.38 72.4275 16.708C72.8008 16.0173 72.9875 15.196 72.9875 14.244ZM100.028 6.264C101.932 6.264 103.463 6.852 104.62 8.028C105.796 9.18533 106.384 10.8093 106.384 12.9V22H102.464V13.432C102.464 12.2187 102.156 11.2947 101.54 10.66C100.924 10.0067 100.084 9.68 99.02 9.68C97.956 9.68 97.1067 10.0067 96.472 10.66C95.856 11.2947 95.548 12.2187 95.548 13.432V22H91.628V13.432C91.628 12.2187 91.32 11.2947 90.704 10.66C90.088 10.0067 89.248 9.68 88.184 9.68C87.1014 9.68 86.2427 10.0067 85.608 10.66C84.992 11.2947 84.684 12.2187 84.684 13.432V22H80.764V6.488H84.684V8.364C85.188 7.71067 85.832 7.19733 86.616 6.824C87.4187 6.45067 88.296 6.264 89.248 6.264C90.4614 6.264 91.544 6.52533 92.496 7.048C93.448 7.552 94.1854 8.28 94.708 9.232C95.212 8.336 95.94 7.61733 96.892 7.076C97.8627 6.53467 98.908 6.264 100.028 6.264ZM116.04 22.252C114.771 22.252 113.632 22.028 112.624 21.58C111.616 21.1133 110.813 20.488 110.216 19.704C109.637 18.92 109.32 18.052 109.264 17.1H113.212C113.287 17.6973 113.576 18.192 114.08 18.584C114.603 18.976 115.247 19.172 116.012 19.172C116.759 19.172 117.337 19.0227 117.748 18.724C118.177 18.4253 118.392 18.0427 118.392 17.576C118.392 17.072 118.131 16.6987 117.608 16.456C117.104 16.1947 116.292 15.9147 115.172 15.616C114.015 15.336 113.063 15.0467 112.316 14.748C111.588 14.4493 110.953 13.992 110.412 13.376C109.889 12.76 109.628 11.9293 109.628 10.884C109.628 10.0253 109.871 9.24133 110.356 8.532C110.86 7.82267 111.569 7.26267 112.484 6.852C113.417 6.44133 114.509 6.236 115.76 6.236C117.608 6.236 119.083 6.70267 120.184 7.636C121.285 8.55067 121.892 9.792 122.004 11.36H118.252C118.196 10.744 117.935 10.2587 117.468 9.904C117.02 9.53067 116.413 9.344 115.648 9.344C114.939 9.344 114.388 9.47467 113.996 9.736C113.623 9.99733 113.436 10.3613 113.436 10.828C113.436 11.3507 113.697 11.752 114.22 12.032C114.743 12.2933 115.555 12.564 116.656 12.844C117.776 13.124 118.7 13.4133 119.428 13.712C120.156 14.0107 120.781 14.4773 121.304 15.112C121.845 15.728 122.125 16.5493 122.144 17.576C122.144 18.472 121.892 19.2747 121.388 19.984C120.903 20.6933 120.193 21.2533 119.26 21.664C118.345 22.056 117.272 22.252 116.04 22.252Z" fill="#006C9B"/>
<path d="M141.714 2.484L134.35 22H131.41L124.046 2.484H126.762L132.894 19.312L139.026 2.484H141.714ZM145.824 4.164C145.338 4.164 144.928 3.996 144.592 3.66C144.256 3.324 144.088 2.91333 144.088 2.428C144.088 1.94267 144.256 1.532 144.592 1.196C144.928 0.859999 145.338 0.691999 145.824 0.691999C146.29 0.691999 146.682 0.859999 147 1.196C147.336 1.532 147.504 1.94267 147.504 2.428C147.504 2.91333 147.336 3.324 147 3.66C146.682 3.996 146.29 4.164 145.824 4.164ZM147.056 6.656V22H144.508V6.656H147.056ZM156.83 22.252C155.654 22.252 154.6 22.056 153.666 21.664C152.733 21.2533 151.996 20.6933 151.454 19.984C150.913 19.256 150.614 18.4253 150.558 17.492H153.19C153.265 18.2573 153.62 18.8827 154.254 19.368C154.908 19.8533 155.757 20.096 156.802 20.096C157.773 20.096 158.538 19.8813 159.098 19.452C159.658 19.0227 159.938 18.4813 159.938 17.828C159.938 17.156 159.64 16.6613 159.042 16.344C158.445 16.008 157.521 15.6813 156.27 15.364C155.132 15.0653 154.198 14.7667 153.47 14.468C152.761 14.1507 152.145 13.6933 151.622 13.096C151.118 12.48 150.866 11.6773 150.866 10.688C150.866 9.904 151.1 9.18533 151.566 8.532C152.033 7.87867 152.696 7.36533 153.554 6.992C154.413 6.6 155.393 6.404 156.494 6.404C158.193 6.404 159.565 6.83333 160.61 7.692C161.656 8.55067 162.216 9.72667 162.29 11.22H159.742C159.686 10.4173 159.36 9.77333 158.762 9.288C158.184 8.80267 157.4 8.56 156.41 8.56C155.496 8.56 154.768 8.756 154.226 9.148C153.685 9.54 153.414 10.0533 153.414 10.688C153.414 11.192 153.573 11.612 153.89 11.948C154.226 12.2653 154.637 12.5267 155.122 12.732C155.626 12.9187 156.317 13.1333 157.194 13.376C158.296 13.6747 159.192 13.9733 159.882 14.272C160.573 14.552 161.161 14.9813 161.646 15.56C162.15 16.1387 162.412 16.8947 162.43 17.828C162.43 18.668 162.197 19.424 161.73 20.096C161.264 20.768 160.601 21.3 159.742 21.692C158.902 22.0653 157.932 22.252 156.83 22.252ZM179.635 6.656V22H177.087V19.732C176.602 20.516 175.92 21.132 175.043 21.58C174.184 22.0093 173.232 22.224 172.187 22.224C170.992 22.224 169.919 21.9813 168.967 21.496C168.015 20.992 167.259 20.2453 166.699 19.256C166.158 18.2667 165.887 17.0627 165.887 15.644V6.656H168.407V15.308C168.407 16.82 168.79 17.9867 169.555 18.808C170.32 19.6107 171.366 20.012 172.691 20.012C174.054 20.012 175.127 19.592 175.911 18.752C176.695 17.912 177.087 16.6893 177.087 15.084V6.656H179.635ZM182.985 14.272C182.985 12.704 183.303 11.332 183.937 10.156C184.572 8.96133 185.44 8.03733 186.541 7.384C187.661 6.73067 188.903 6.404 190.265 6.404C191.609 6.404 192.776 6.69333 193.765 7.272C194.755 7.85067 195.492 8.57867 195.977 9.456V6.656H198.553V22H195.977V19.144C195.473 20.04 194.717 20.7867 193.709 21.384C192.72 21.9627 191.563 22.252 190.237 22.252C188.875 22.252 187.643 21.916 186.541 21.244C185.44 20.572 184.572 19.6293 183.937 18.416C183.303 17.2027 182.985 15.8213 182.985 14.272ZM195.977 14.3C195.977 13.1427 195.744 12.1347 195.277 11.276C194.811 10.4173 194.176 9.764 193.373 9.316C192.589 8.84933 191.721 8.616 190.769 8.616C189.817 8.616 188.949 8.84 188.165 9.288C187.381 9.736 186.756 10.3893 186.289 11.248C185.823 12.1067 185.589 13.1147 185.589 14.272C185.589 15.448 185.823 16.4747 186.289 17.352C186.756 18.2107 187.381 18.8733 188.165 19.34C188.949 19.788 189.817 20.012 190.769 20.012C191.721 20.012 192.589 19.788 193.373 19.34C194.176 18.8733 194.811 18.2107 195.277 17.352C195.744 16.4747 195.977 15.4573 195.977 14.3ZM205.407 1.28V22H202.859V1.28H205.407ZM215.182 22.252C214.006 22.252 212.951 22.056 212.018 21.664C211.084 21.2533 210.347 20.6933 209.806 19.984C209.264 19.256 208.966 18.4253 208.91 17.492H211.542C211.616 18.2573 211.971 18.8827 212.606 19.368C213.259 19.8533 214.108 20.096 215.154 20.096C216.124 20.096 216.89 19.8813 217.45 19.452C218.01 19.0227 218.29 18.4813 218.29 17.828C218.29 17.156 217.991 16.6613 217.394 16.344C216.796 16.008 215.872 15.6813 214.622 15.364C213.483 15.0653 212.55 14.7667 211.822 14.468C211.112 14.1507 210.496 13.6933 209.974 13.096C209.47 12.48 209.218 11.6773 209.218 10.688C209.218 9.904 209.451 9.18533 209.918 8.532C210.384 7.87867 211.047 7.36533 211.906 6.992C212.764 6.6 213.744 6.404 214.846 6.404C216.544 6.404 217.916 6.83333 218.962 7.692C220.007 8.55067 220.567 9.72667 220.642 11.22H218.094C218.038 10.4173 217.711 9.77333 217.114 9.288C216.535 8.80267 215.751 8.56 214.762 8.56C213.847 8.56 213.119 8.756 212.578 9.148C212.036 9.54 211.766 10.0533 211.766 10.688C211.766 11.192 211.924 11.612 212.242 11.948C212.578 12.2653 212.988 12.5267 213.474 12.732C213.978 12.9187 214.668 13.1333 215.546 13.376C216.647 13.6747 217.543 13.9733 218.234 14.272C218.924 14.552 219.512 14.9813 219.998 15.56C220.502 16.1387 220.763 16.8947 220.782 17.828C220.782 18.668 220.548 19.424 220.082 20.096C219.615 20.768 218.952 21.3 218.094 21.692C217.254 22.0653 216.283 22.252 215.182 22.252Z" fill="#0A8754"/>
</svg>
