<svg width="26" height="20" viewBox="0 0 26 20" fill="none" xmlns="http://www.w3.org/2000/svg">
<path d="M6.71883 0.543485C10.8983 0.180167 15.1015 0.180167 19.281 0.543484L21.2947 0.718527C22.6352 0.835053 23.7832 1.63461 24.3781 2.77832C24.4542 2.92463 24.3972 3.10178 24.257 3.18859L15.9023 8.36049C14.1105 9.46971 11.8512 9.49299 10.0369 8.42091L1.62644 3.4511C1.49056 3.37081 1.42819 3.20553 1.48943 3.06006C2.03364 1.7673 3.25714 0.844402 4.70518 0.718527L6.71883 0.543485Z" fill="#0082BA"/>
<path d="M1.48258 5.68917C1.27463 5.56629 1.00929 5.69853 0.985053 5.93885C0.646739 9.29303 0.72862 12.679 1.2307 16.0178C1.49538 17.7779 2.93193 19.1273 4.70519 19.2815L6.71883 19.4565C10.8983 19.8198 15.1015 19.8198 19.281 19.4565L21.2947 19.2815C23.0679 19.1273 24.5045 17.7779 24.7692 16.0178C25.2859 12.5817 25.3575 9.09565 24.9842 5.6457C24.958 5.40368 24.6881 5.27388 24.4811 5.40201L16.9551 10.061C14.5308 11.5617 11.474 11.5932 9.01942 10.1428L1.48258 5.68917Z" fill="#0082BA"/>
</svg>
