<svg width="30" height="30" viewBox="0 0 30 30" fill="none" xmlns="http://www.w3.org/2000/svg">
<path fill-rule="evenodd" clip-rule="evenodd" d="M15.9998 1.66663C15.9998 1.11434 15.5521 0.666626 14.9998 0.666626C14.4476 0.666626 13.9998 1.11434 13.9998 1.66663V4.0448C8.7227 4.52035 4.52023 8.72282 4.04468 14H1.6665C1.11422 14 0.666504 14.4477 0.666504 15C0.666504 15.5522 1.11422 16 1.6665 16H4.04468C4.52023 21.2771 8.7227 25.4796 13.9998 25.9551V28.3333C13.9998 28.8856 14.4476 29.3333 14.9998 29.3333C15.5521 29.3333 15.9998 28.8856 15.9998 28.3333V25.9551C21.277 25.4796 25.4794 21.2771 25.955 16H28.3332C28.8855 16 29.3332 15.5522 29.3332 15C29.3332 14.4477 28.8855 14 28.3332 14H25.955C25.4794 8.72282 21.277 4.52035 15.9998 4.0448V1.66663ZM9.99984 15C9.99984 12.2385 12.2384 9.99996 14.9998 9.99996C17.7613 9.99996 19.9998 12.2385 19.9998 15C19.9998 17.7614 17.7613 20 14.9998 20C12.2384 20 9.99984 17.7614 9.99984 15Z" fill="#0082BA"/>
</svg>
