<svg width="23" height="23" viewBox="0 0 23 23" fill="none" xmlns="http://www.w3.org/2000/svg">
<path d="M1.66689 9.14736C4.22209 14.7125 8.76876 19.1372 14.4215 21.5359L15.3276 21.9396C17.4007 22.8633 19.8377 22.1615 21.1021 20.2769L22.2863 18.5119C22.6712 17.9381 22.554 17.1652 22.0162 16.7313L18.0004 13.4916C17.4106 13.0158 16.5432 13.1266 16.092 13.7355L14.8497 15.4118C11.6619 13.8394 9.07388 11.2513 7.50142 8.06355L9.17776 6.82126C9.78664 6.37003 9.89748 5.50268 9.42162 4.91284L6.1818 0.89691C5.748 0.359202 4.97533 0.241912 4.40151 0.62667L2.62439 1.81827C0.727929 3.08988 0.0300879 5.54701 0.975064 7.62561L1.66585 9.14509L1.66689 9.14736Z" fill="#0082BA"/>
</svg>
